<svg width="10" height="10" viewBox="0 0 10 10" fill="none" xmlns="http://www.w3.org/2000/svg">
<path d="M8.97753 3.30813C8.86033 3.19096 8.70138 3.12513 8.53566 3.12513C8.36993 3.12513 8.21099 3.19096 8.09378 3.30813L5.00003 6.40188L1.90628 3.30813C1.7884 3.19428 1.63053 3.13128 1.46665 3.1327C1.30278 3.13413 1.14602 3.19986 1.03014 3.31574C0.914264 3.43162 0.848534 3.58838 0.84711 3.75225C0.845686 3.91612 0.908682 4.074 1.02253 4.19188L4.55816 7.7275C4.67536 7.84467 4.8343 7.91049 5.00003 7.91049C5.16576 7.91049 5.3247 7.84467 5.44191 7.7275L8.97753 4.19188C9.0947 4.07467 9.16052 3.91573 9.16052 3.75C9.16052 3.58427 9.0947 3.42533 8.97753 3.30813Z" fill="#237EAD"/>
</svg>
