<svg width="50" height="50" viewBox="0 0 50 50" fill="none" xmlns="http://www.w3.org/2000/svg">
<path d="M33.4594 44.8875C34.0452 44.3014 34.3743 43.5067 34.3743 42.6781C34.3743 41.8495 34.0452 41.0547 33.4594 40.4687L17.9906 25L33.4594 9.53122C34.0286 8.94184 34.3436 8.15245 34.3365 7.33309C34.3294 6.51372 34.0007 5.72993 33.4213 5.15053C32.8419 4.57113 32.0581 4.24248 31.2388 4.23536C30.4194 4.22824 29.63 4.54322 29.0406 5.11247L11.3625 22.7906C10.7767 23.3766 10.4475 24.1713 10.4475 25C10.4475 25.8286 10.7767 26.6233 11.3625 27.2093L29.0406 44.8875C29.6266 45.4733 30.4214 45.8024 31.25 45.8024C32.0786 45.8024 32.8733 45.4733 33.4594 44.8875Z" fill="#0E4B6A"/>
</svg>
