<svg width="50" height="50" viewBox="0 0 50 50" fill="none" xmlns="http://www.w3.org/2000/svg">
<path d="M16.5406 5.11253C15.9548 5.69855 15.6256 6.49327 15.6256 7.3219C15.6256 8.15054 15.9548 8.94525 16.5406 9.53128L32.0093 25L16.5406 40.4688C15.9714 41.0582 15.6564 41.8475 15.6635 42.6669C15.6706 43.4863 15.9993 44.2701 16.5787 44.8495C17.1581 45.4289 17.9419 45.7575 18.7612 45.7646C19.5806 45.7718 20.37 45.4568 20.9593 44.8875L38.6375 27.2094C39.2233 26.6234 39.5524 25.8287 39.5524 25C39.5524 24.1714 39.2233 23.3767 38.6375 22.7907L20.9593 5.11253C20.3733 4.52668 19.5786 4.19757 18.75 4.19757C17.9213 4.19757 17.1266 4.52668 16.5406 5.11253Z" fill="#0E4B6A"/>
</svg>
