<svg width="15" height="15" viewBox="0 0 15 15" fill="none" xmlns="http://www.w3.org/2000/svg">
<path d="M4.96219 1.53376C4.78643 1.70957 4.6877 1.94799 4.6877 2.19658C4.6877 2.44517 4.78643 2.68358 4.96219 2.85939L9.60281 7.50002L4.96219 12.1406C4.79142 12.3175 4.69692 12.5543 4.69906 12.8001C4.70119 13.0459 4.79979 13.281 4.97361 13.4548C5.14743 13.6287 5.38257 13.7273 5.62838 13.7294C5.87418 13.7315 6.111 13.637 6.28781 13.4663L11.5913 8.16283C11.767 7.98702 11.8657 7.74861 11.8657 7.50002C11.8657 7.25142 11.767 7.01301 11.5913 6.8372L6.28781 1.53376C6.11201 1.35801 5.87359 1.25928 5.625 1.25928C5.37641 1.25928 5.138 1.35801 4.96219 1.53376Z" fill="white"/>
</svg>
