<svg width="25" height="25" viewBox="0 0 25 25" fill="none" xmlns="http://www.w3.org/2000/svg">
<path d="M12.5 22.9167C11.0764 22.9167 9.73095 22.6431 8.46358 22.0958C7.19622 21.5486 6.08928 20.8021 5.14275 19.8563C4.19692 18.9104 3.45039 17.8038 2.90317 16.5365C2.35594 15.2691 2.08268 13.9236 2.08338 12.5C2.08338 11.059 2.35699 9.70904 2.90421 8.45001C3.45143 7.19098 4.19796 6.0889 5.14379 5.14376C6.08963 4.19723 7.19588 3.4507 8.46254 2.90418C9.72921 2.35765 11.075 2.08404 12.5 2.08334C13.941 2.08334 15.291 2.35695 16.55 2.90418C17.8091 3.4514 18.9112 4.19793 19.8563 5.14376C20.8028 6.08959 21.5493 7.19202 22.0959 8.45105C22.6424 9.71008 22.916 11.0597 22.9167 12.5C22.9167 13.9236 22.6431 15.2691 22.0959 16.5365C21.5487 17.8038 20.8021 18.9108 19.8563 19.8573C18.9105 20.8031 17.808 21.5497 16.549 22.0969C15.29 22.6441 13.9403 22.9174 12.5 22.9167ZM12.5 20.7813C12.9514 20.1563 13.3421 19.5052 13.6719 18.8281C14.0018 18.1511 14.2709 17.4306 14.4792 16.6667H10.5209C10.7292 17.4306 10.9983 18.1511 11.3282 18.8281C11.658 19.5052 12.0487 20.1563 12.5 20.7813ZM9.79171 20.3646C9.47921 19.7917 9.2056 19.1969 8.97088 18.5802C8.73615 17.9636 8.54102 17.3257 8.38546 16.6667H5.31254C5.81601 17.5347 6.44553 18.2899 7.20108 18.9323C7.95664 19.5747 8.82018 20.0521 9.79171 20.3646ZM15.2084 20.3646C16.1806 20.0521 17.0445 19.5747 17.8 18.9323C18.5556 18.2899 19.1848 17.5347 19.6875 16.6667H16.6146C16.4584 17.3264 16.2632 17.9646 16.0292 18.5813C15.7952 19.1979 15.5216 19.7924 15.2084 20.3646ZM4.42713 14.5833H7.96879C7.91671 14.2361 7.87747 13.8931 7.85108 13.5542C7.8247 13.2153 7.81185 12.8639 7.81254 12.5C7.81254 12.1354 7.82574 11.784 7.85213 11.4458C7.87851 11.1076 7.9174 10.7646 7.96879 10.4167H4.42713C4.34032 10.7639 4.27504 11.107 4.23129 11.4458C4.18754 11.7847 4.16601 12.1361 4.16671 12.5C4.16671 12.8646 4.18858 13.216 4.23233 13.5542C4.27608 13.8924 4.34101 14.2354 4.42713 14.5833ZM10.0521 14.5833H14.948C15 14.2361 15.0393 13.8931 15.0657 13.5542C15.0921 13.2153 15.1049 12.8639 15.1042 12.5C15.1042 12.1354 15.091 11.784 15.0646 11.4458C15.0382 11.1076 14.9993 10.7646 14.948 10.4167H10.0521C10 10.7639 9.96081 11.107 9.93442 11.4458C9.90803 11.7847 9.89518 12.1361 9.89588 12.5C9.89588 12.8646 9.90907 13.216 9.93546 13.5542C9.96185 13.8924 10.0007 14.2354 10.0521 14.5833ZM17.0313 14.5833H20.573C20.6598 14.2361 20.725 13.8931 20.7688 13.5542C20.8125 13.2153 20.8341 12.8639 20.8334 12.5C20.8334 12.1354 20.8115 11.784 20.7678 11.4458C20.724 11.1076 20.6591 10.7646 20.573 10.4167H17.0313C17.0834 10.7639 17.1226 11.107 17.149 11.4458C17.1754 11.7847 17.1882 12.1361 17.1875 12.5C17.1875 12.8646 17.1743 13.216 17.148 13.5542C17.1216 13.8924 17.0827 14.2354 17.0313 14.5833ZM16.6146 8.33334H19.6875C19.1841 7.46529 18.5549 6.71008 17.8 6.06772C17.0452 5.42536 16.1813 4.94793 15.2084 4.63543C15.5209 5.20834 15.7945 5.80314 16.0292 6.4198C16.2639 7.03647 16.4591 7.67432 16.6146 8.33334ZM10.5209 8.33334H14.4792C14.2709 7.56946 14.0018 6.84897 13.6719 6.17189C13.3421 5.4948 12.9514 4.84376 12.5 4.21876C12.0487 4.84376 11.658 5.4948 11.3282 6.17189C10.9983 6.84897 10.7292 7.56946 10.5209 8.33334ZM5.31254 8.33334H8.38546C8.54171 7.67362 8.7372 7.03543 8.97192 6.41876C9.20664 5.80209 9.4799 5.20765 9.79171 4.63543C8.81949 4.94793 7.9556 5.42536 7.20004 6.06772C6.44449 6.71008 5.81532 7.46529 5.31254 8.33334Z" fill="#237EAD"/>
</svg>
