<svg width="25" height="25" viewBox="0 0 25 25" fill="none" xmlns="http://www.w3.org/2000/svg">
<path d="M12.5 11.9793C11.8093 11.9793 11.1469 11.705 10.6586 11.2166C10.1702 10.7282 9.89581 10.0658 9.89581 9.37516C9.89581 8.6845 10.1702 8.02212 10.6586 7.53374C11.1469 7.04536 11.8093 6.771 12.5 6.771C13.1906 6.771 13.853 7.04536 14.3414 7.53374C14.8298 8.02212 15.1041 8.6845 15.1041 9.37516C15.1041 9.71715 15.0368 10.0558 14.9059 10.3717C14.775 10.6877 14.5832 10.9748 14.3414 11.2166C14.0996 11.4584 13.8125 11.6502 13.4966 11.7811C13.1806 11.912 12.842 11.9793 12.5 11.9793ZM12.5 2.0835C10.5661 2.0835 8.71145 2.85172 7.34399 4.21918C5.97654 5.58663 5.20831 7.44129 5.20831 9.37516C5.20831 14.8439 12.5 22.9168 12.5 22.9168C12.5 22.9168 19.7916 14.8439 19.7916 9.37516C19.7916 7.44129 19.0234 5.58663 17.656 4.21918C16.2885 2.85172 14.4338 2.0835 12.5 2.0835Z" fill="white"/>
</svg>
