<svg width="25" height="25" viewBox="0 0 25 25" fill="none" xmlns="http://www.w3.org/2000/svg">
<path d="M12.5 11.9792C11.8093 11.9792 11.1469 11.7048 10.6586 11.2164C10.1702 10.7281 9.89581 10.0657 9.89581 9.37501C9.89581 8.68434 10.1702 8.02196 10.6586 7.53359C11.1469 7.04521 11.8093 6.77084 12.5 6.77084C13.1906 6.77084 13.853 7.04521 14.3414 7.53359C14.8298 8.02196 15.1041 8.68434 15.1041 9.37501C15.1041 9.71699 15.0368 10.0556 14.9059 10.3716C14.775 10.6875 14.5832 10.9746 14.3414 11.2164C14.0996 11.4583 13.8125 11.6501 13.4966 11.7809C13.1806 11.9118 12.842 11.9792 12.5 11.9792ZM12.5 2.08334C10.5661 2.08334 8.71145 2.85157 7.34399 4.21902C5.97654 5.58648 5.20831 7.44114 5.20831 9.37501C5.20831 14.8438 12.5 22.9167 12.5 22.9167C12.5 22.9167 19.7916 14.8438 19.7916 9.37501C19.7916 7.44114 19.0234 5.58648 17.656 4.21902C16.2885 2.85157 14.4338 2.08334 12.5 2.08334Z" fill="#237EAD"/>
</svg>
