<svg width="15" height="15" viewBox="0 0 15 15" fill="none" xmlns="http://www.w3.org/2000/svg">
<g clip-path="url(#clip0_17_322)">
<path fill-rule="evenodd" clip-rule="evenodd" d="M10.345 13.8332C9.445 13.8 6.89437 13.4475 4.22312 10.7769C1.5525 8.10567 1.20062 5.55567 1.16687 4.65504C1.11687 3.28254 2.16813 1.94942 3.3825 1.42879C3.52874 1.36565 3.68888 1.34161 3.84721 1.35903C4.00554 1.37645 4.15662 1.43474 4.28562 1.52817C5.28562 2.25692 5.97563 3.35942 6.56812 4.22629C6.69849 4.41675 6.75423 4.64851 6.72472 4.87742C6.69522 5.10632 6.58253 5.31637 6.40812 5.46754L5.18875 6.37317C5.12984 6.41571 5.08837 6.47819 5.07205 6.549C5.05572 6.6198 5.06566 6.69413 5.1 6.75817C5.37625 7.26004 5.8675 8.00754 6.43 8.57004C6.99312 9.13254 7.77563 9.65629 8.3125 9.96379C8.37981 10.0016 8.45905 10.0121 8.53391 9.99331C8.60877 9.97448 8.67358 9.92768 8.715 9.86254L9.50875 8.65442C9.65468 8.46057 9.86995 8.33071 10.1095 8.29203C10.349 8.25335 10.5942 8.30886 10.7938 8.44692C11.6731 9.05567 12.6994 9.73379 13.4506 10.6957C13.5516 10.8256 13.6159 10.9803 13.6367 11.1436C13.6575 11.3068 13.634 11.4727 13.5687 11.6238C13.0456 12.8444 11.7219 13.8838 10.345 13.8332Z" fill="white"/>
</g>
<defs>
<clipPath id="clip0_17_322">
<rect width="15" height="15" fill="white"/>
</clipPath>
</defs>
</svg>
