<svg width="25" height="25" viewBox="0 0 25 25" fill="none" xmlns="http://www.w3.org/2000/svg">
<g clip-path="url(#clip0_1_35)">
<path fill-rule="evenodd" clip-rule="evenodd" d="M17.2417 23.0552C15.7417 23 11.4906 22.4125 7.03856 17.9615C2.58752 13.5094 2.00106 9.25939 1.94481 7.75834C1.86148 5.47084 3.61356 3.24897 5.63752 2.38126C5.88125 2.27602 6.14815 2.23595 6.41203 2.26499C6.67592 2.29402 6.92772 2.39117 7.14273 2.54689C8.80939 3.76147 9.95939 5.59897 10.9469 7.04376C11.1642 7.36119 11.2571 7.74746 11.2079 8.12897C11.1587 8.51048 10.9709 8.86056 10.6802 9.11251L8.64794 10.6219C8.54975 10.6928 8.48064 10.7969 8.45343 10.9149C8.42623 11.0329 8.44278 11.1568 8.50002 11.2636C8.96044 12.1 9.77919 13.3458 10.7167 14.2833C11.6552 15.2208 12.9594 16.0938 13.8542 16.6063C13.9664 16.6692 14.0984 16.6868 14.2232 16.6555C14.348 16.6241 14.456 16.5461 14.525 16.4375L15.8479 14.424C16.0912 14.1009 16.4499 13.8845 16.8492 13.82C17.2484 13.7555 17.6571 13.848 17.9896 14.0781C19.4552 15.0927 21.1656 16.2229 22.4177 17.8261C22.5861 18.0426 22.6932 18.3004 22.7278 18.5726C22.7625 18.8447 22.7234 19.1211 22.6146 19.3729C21.7427 21.4073 19.5365 23.1396 17.2417 23.0552Z" fill="#237EAD"/>
</g>
<defs>
<clipPath id="clip0_1_35">
<rect width="25" height="25" fill="white"/>
</clipPath>
</defs>
</svg>
